<svg width="140.000000" height="22.130005" viewBox="0 0 140 22.13" fill="none" xmlns="http://www.w3.org/2000/svg" xmlns:xlink="http://www.w3.org/1999/xlink">
	<desc>
			Created with Pixso.
	</desc>
	<defs/>
	<circle cx="8.500000" cy="11.000000" r="8.000000" stroke="#FFFFFF" stroke-opacity="1.000000" stroke-width="1.000000"/>
	<path d="M67.4 18.43C67.73 18.53 68.12 18.59 68.56 18.61L68.74 17.53Q68.34 17.46 68.04 17.39C67.85 17.33 67.7 17.25 67.58 17.15C67.46 17.03 67.37 16.87 67.3 16.69C67.25 16.49 67.22 16.23 67.22 15.91L67.22 2.91L65.92 3.15L65.92 15.95C65.92 16.44 65.97 16.85 66.08 17.19C66.2 17.51 66.37 17.77 66.58 17.99C66.81 18.19 67.08 18.33 67.4 18.43ZM33.59 5.71C33.78 5.52 33.87 5.27 33.87 4.96C33.87 4.66 33.78 4.42 33.59 4.25C33.4 4.06 33.18 3.97 32.91 3.97C32.64 3.97 32.42 4.06 32.23 4.25C32.04 4.42 31.95 4.66 31.95 4.96C31.95 5.27 32.04 5.52 32.23 5.71C32.42 5.88 32.64 5.97 32.91 5.97Q33.14 5.97 33.34 5.88Q33.47 5.81 33.59 5.71ZM27.68 17.15C27.2 17.39 26.58 17.51 25.84 17.51Q25.22 17.51 24.74 17.43C24.43 17.37 24.16 17.31 23.94 17.25C23.71 17.17 23.53 17.1 23.4 17.04C23.26 16.98 23.18 16.93 23.14 16.91L22.8 18.09C22.96 18.17 23.28 18.28 23.76 18.43Q24.48 18.67 25.84 18.67Q27.66 18.67 28.7 17.95Q29.12 17.66 29.37 17.26Q29.76 16.67 29.76 15.83Q29.76 15.09 29.5 14.61C29.32 14.27 29.1 13.99 28.82 13.77C28.54 13.53 28.21 13.33 27.84 13.17C27.48 12.99 27.1 12.83 26.7 12.67Q26.12 12.43 25.66 12.23C25.36 12.09 25.11 11.95 24.9 11.81C24.7 11.65 24.54 11.47 24.44 11.27C24.33 11.07 24.28 10.83 24.28 10.55C24.28 10.27 24.34 10.03 24.46 9.85C24.58 9.64 24.74 9.49 24.94 9.37Q25.24 9.17 25.62 9.09C25.88 9.02 26.16 8.99 26.46 8.99Q27.56 8.99 28.12 9.18Q28.7 9.39 28.94 9.51L29.24 8.35C29.05 8.25 28.72 8.14 28.26 8.03C27.8 7.91 27.22 7.85 26.52 7.85Q24.86 7.85 23.9 8.63Q23.47 8.98 23.23 9.44Q22.96 9.98 22.96 10.67C22.96 11.11 23.04 11.48 23.2 11.79C23.36 12.09 23.57 12.36 23.84 12.59C24.1 12.8 24.41 12.99 24.76 13.17Q25.28 13.41 25.86 13.65C26.34 13.85 26.74 14.02 27.06 14.17C27.39 14.31 27.66 14.47 27.86 14.63C28.06 14.79 28.2 14.97 28.28 15.17Q28.42 15.47 28.42 15.89Q28.42 16.37 28.19 16.7Q28.01 16.97 27.68 17.15ZM70.8 10.89Q70.42 11.89 70.42 13.25Q70.42 14.43 70.7 15.43C70.89 16.08 71.19 16.65 71.6 17.12C72.01 17.61 72.54 17.98 73.18 18.25C73.82 18.51 74.59 18.65 75.5 18.65C76.19 18.65 76.79 18.57 77.3 18.43C77.82 18.28 78.17 18.15 78.36 18.04L78.12 16.93C77.93 17.02 77.63 17.13 77.22 17.27C76.81 17.4 76.25 17.46 75.54 17.46C74.26 17.46 73.33 17.12 72.74 16.45C72.15 15.77 71.84 14.79 71.8 13.53L79.06 13.53C79.07 13.43 79.08 13.33 79.08 13.23C79.09 13.12 79.1 13.01 79.1 12.91C79.1 11.19 78.72 9.91 77.96 9.09C77.21 8.26 76.21 7.85 74.94 7.85C74.37 7.85 73.81 7.96 73.26 8.18C72.73 8.4 72.25 8.73 71.82 9.18Q71.2 9.87 70.8 10.89ZM38.52 8.09C37.9 8.22 37.4 8.34 37.02 8.45L37.02 18.43L38.32 18.43L38.32 9.35C38.44 9.29 38.71 9.23 39.14 9.17C39.58 9.1 40.11 9.07 40.74 9.07Q41.58 9.07 42.08 9.33C42.42 9.49 42.69 9.73 42.88 10.07C43.06 10.39 43.18 10.8 43.24 11.31C43.3 11.8 43.34 12.39 43.34 13.07L43.34 18.43L44.64 18.43L44.64 12.55Q44.64 11.83 44.54 11.19C44.48 10.75 44.4 10.35 44.28 10.01C44.34 9.95 44.45 9.87 44.6 9.77C44.76 9.66 44.96 9.55 45.2 9.45C45.44 9.34 45.72 9.25 46.04 9.18C46.37 9.1 46.74 9.07 47.14 9.07C47.67 9.07 48.1 9.15 48.44 9.33C48.77 9.49 49.02 9.73 49.2 10.07C49.38 10.39 49.5 10.8 49.56 11.31Q49.66 12.05 49.66 13.07L49.66 18.43L50.96 18.43L50.96 12.65C50.96 11.95 50.91 11.31 50.82 10.73Q50.68 9.85 50.28 9.22C50.01 8.8 49.63 8.47 49.14 8.25Q48.42 7.89 47.24 7.89C46.76 7.89 46.32 7.93 45.92 8.03C45.53 8.12 45.19 8.23 44.9 8.37C44.6 8.5 44.36 8.63 44.16 8.77C43.97 8.89 43.84 8.97 43.78 9.03Q43.65 8.86 43.5 8.72Q42.62 7.89 40.94 7.89C39.95 7.89 39.14 7.95 38.52 8.09ZM54.28 22.13L55.58 22.13L55.58 17.83C55.81 18 56.17 18.19 56.66 18.39C57.17 18.57 57.76 18.67 58.44 18.67Q59.56 18.67 60.42 18.27C61.01 18 61.5 17.63 61.9 17.17C62.3 16.69 62.6 16.12 62.8 15.47C63.01 14.8 63.12 14.07 63.12 13.29C63.12 12.45 62.99 11.69 62.74 11.03C62.5 10.36 62.15 9.79 61.7 9.33C61.26 8.86 60.73 8.51 60.1 8.27C59.49 8.01 58.8 7.89 58.04 7.89C57.12 7.89 56.36 7.95 55.76 8.07C55.16 8.18 54.67 8.31 54.28 8.45L54.28 22.13ZM32.27 18.43L33.57 18.43L33.57 8.09L32.27 8.09L32.27 18.43ZM77 9.91Q77.72 10.81 77.76 12.43L71.84 12.43C71.87 11.97 71.95 11.54 72.1 11.13C72.26 10.71 72.47 10.35 72.74 10.05C73.02 9.72 73.34 9.47 73.7 9.29C74.07 9.1 74.49 9.01 74.96 9.01Q75.85 9.01 76.47 9.42Q76.77 9.61 77 9.91ZM56.02 16.87C55.85 16.76 55.7 16.66 55.58 16.57L55.58 9.35C55.78 9.28 56.07 9.22 56.46 9.17C56.86 9.1 57.38 9.07 58.02 9.07C59.14 9.07 60.04 9.43 60.72 10.17L60.73 10.17Q61.74 11.25 61.74 13.29C61.74 13.86 61.68 14.41 61.56 14.93Q61.38 15.69 60.98 16.27C60.71 16.64 60.36 16.94 59.92 17.17Q59.28 17.49 58.32 17.49C58.01 17.49 57.72 17.46 57.44 17.41C57.16 17.34 56.9 17.26 56.66 17.17C56.42 17.07 56.21 16.97 56.02 16.87Z" fill="#FFFFFF" fill-opacity="1.000000" fill-rule="evenodd"/>
	<rect x="86.500000" y="3.000000" rx="8.000000" width="31.000000" height="16.000000" stroke="#FFFFFF" stroke-opacity="1.000000" stroke-width="1.000000"/>
	<circle cx="131.500000" cy="11.000000" r="8.000000" stroke="#FFFFFF" stroke-opacity="1.000000" stroke-width="1.000000"/>
</svg>
